<svg width="15" height="15" viewBox="0 0 15 15" fill="none" xmlns="http://www.w3.org/2000/svg">
<path d="M6.78305 13.653C5.97501 12.8871 5.40528 11.9161 4.84996 10.9407C4.4332 10.2069 4.05523 9.45098 3.66728 8.70058C2.94902 7.30951 2.86478 5.84305 3.25938 4.35998C3.40085 3.85806 3.64971 3.39289 3.98872 2.99665C4.92534 1.90263 6.14571 1.33399 7.59774 1.36392C8.03969 1.36446 8.47593 1.46368 8.87464 1.65434C10.6913 2.61534 12.0359 4.45088 11.4096 6.83732C11.0605 8.16742 10.5617 9.43877 9.7115 10.5405C9.02428 11.4317 8.32856 12.3159 7.62434 13.193C7.42261 13.4413 7.19206 13.6752 6.78305 13.653ZM7.01028 12.999C7.97904 12.0979 8.61971 11.0693 9.33796 10.1005C10.1438 9.00982 10.596 7.77282 10.9064 6.4682C11.066 5.7965 11.1159 5.10153 10.7955 4.45532C10.3522 3.53976 9.77468 2.72063 8.88795 2.17307C8.24949 1.77736 7.5789 1.56343 6.8285 1.86271C6.38513 2.04227 5.90407 2.15757 5.48287 2.38147C4.42544 2.94565 3.76925 3.81243 3.62516 5.03391C3.48106 6.25539 3.62516 7.43918 4.23146 8.54206C4.59835 9.21265 4.92201 9.90763 5.30553 10.5683C5.7888 11.3974 6.23549 12.2586 7.01028 12.9968V12.999Z" fill="black"/>
<path d="M7.66483 7.6974C6.63068 7.66082 5.95786 7.52448 5.60206 6.83394C5.20857 6.06802 5.23739 5.29434 5.7395 4.565C6.16292 3.94983 6.74374 3.67271 7.48749 3.7503C8.23124 3.82789 8.7655 4.19368 9.06366 4.87093C9.30862 5.43068 9.46713 6.01924 9.18337 6.6067C8.81537 7.36708 8.18358 7.71957 7.66483 7.6974ZM7.42209 7.15429C8.16806 7.13655 8.80318 6.57124 8.81759 5.91394C8.83865 4.93077 8.13591 4.24246 7.13833 4.26906C6.94839 4.27023 6.76076 4.31089 6.58737 4.38845C6.41398 4.46602 6.25861 4.57878 6.13113 4.7196C6.00366 4.86042 5.90686 5.0262 5.84688 5.20643C5.7869 5.38666 5.76506 5.57742 5.78273 5.76654C5.84702 6.6699 6.45111 7.17756 7.42209 7.15429Z" fill="black"/>
</svg>
